<svg width="0" height="0" display="none" xmlns="http://www.w3.org/2000/svg">
  <symbol id="icon-burger" viewBox="0 0 24 24"><rect y="2" width="24" height="2" rx="1"></rect><rect y="20" width="24" height="2" rx="1"></rect><rect y="8" width="24" height="2" rx="1"></rect><rect y="14" width="24" height="2" rx="1"></rect></symbol>
  <symbol id="icon-close" viewBox="0 0 95.08 95.09"><path d="M58.31 47.47l34.58-34.58a7.63 7.63 0 0 0 0-10.69 7.63 7.63 0 0 0-10.69 0L47.62 36.78 13 2.19a7.63 7.63 0 0 0-10.69 0 7.63 7.63 0 0 0 0 10.69l34.6 34.6L2.33 82.07a7.29 7.29 0 0 0 0 10.69 7.63 7.63 0 0 0 10.69 0l34.6-34.6 34.6 34.6a7.27 7.27 0 0 0 10.68 0 7.63 7.63 0 0 0 0-10.69z"></path></symbol>
  <symbol id="icon-link" viewBox="0 0 100 58.84"><title>icon-link</title><path d="M78.47 48H49.21a10.66 10.66 0 0 1-9-4.91h10.58A21.57 21.57 0 0 0 71.7 26.64h6.76a10.67 10.67 0 0 1 0 21.33zm-67.6-26.47a10.67 10.67 0 0 1 10.67-10.66H50.8A10.59 10.59 0 0 1 58.34 14a10.94 10.94 0 0 1 1.43 1.79H49.21a21.57 21.57 0 0 0-20.92 16.4h-6.76a10.67 10.67 0 0 1-10.66-10.66zm39.92 10.66H39.86a10.68 10.68 0 0 1 9.35-5.54h10.93a10.67 10.67 0 0 1-9.35 5.54zM100 37.31a21.53 21.53 0 0 0-21.53-21.53h-6.92A21.53 21.53 0 0 0 50.8 0H21.54a21.53 21.53 0 0 0 0 43.06h6.83v-.31A21.41 21.41 0 0 0 34 52.53a21.4 21.4 0 0 0 15.2 6.31h29.26A21.56 21.56 0 0 0 100 37.31z"></path></symbol>
  <symbol id="icon-pin" viewBox="0 0 16 16"><path fill-rule="evenodd" clip-rule="evenodd" d="M8.727 2A4.727 4.727 0 0 0 4 6.727c0 1.826 1.198 3.65 2.59 5.12a18.357 18.357 0 0 0 2.137 1.917 18.36 18.36 0 0 0 2.138-1.918c1.392-1.469 2.59-3.293 2.59-5.119A4.727 4.727 0 0 0 8.726 2zm0 13l-.555.832-.002-.002-.005-.003-.016-.01a6.814 6.814 0 0 1-.253-.18 20.364 20.364 0 0 1-2.758-2.416C3.666 11.669 2 9.357 2 6.728a6.727 6.727 0 1 1 13.454 0c0 2.63-1.665 4.941-3.137 6.495a20.366 20.366 0 0 1-2.956 2.556 6.845 6.845 0 0 1-.055.038l-.016.01-.005.004-.002.001s-.001.001-.556-.831zm0 0l.555.832a1 1 0 0 1-1.11 0L8.727 15z"></path><path d="M8.727 8.637a1.91 1.91 0 1 0 0-3.819 1.91 1.91 0 0 0 0 3.819z"></path></symbol>
  <symbol id="icon-play" viewBox="0 0 32 32"><path clip-rule="evenodd" d="M27.25 16c0 6.213-5.037 11.25-11.25 11.25S4.75 22.213 4.75 16 9.787 4.75 16 4.75 27.25 9.787 27.25 16zM16 31c8.284 0 15-6.716 15-15 0-8.284-6.716-15-15-15C7.716 1 1 7.716 1 16c0 8.284 6.716 15 15 15zm-1.657-19.744c-1.002-.668-2.343.05-2.343 1.253v7.63c0 1.204 1.341 1.922 2.343 1.254l5.722-3.815a1.507 1.507 0 0 0 0-2.508l-5.722-3.814z"></path></symbol>
  <symbol id="icon-search" viewBox="0 0 100 100"><title>icon-search</title><path d="M80.65 66.78a33.55 33.55 0 0 1-47.44-47.44 33.55 33.55 0 1 1 47.44 47.44zm6.73-54.16a43.06 43.06 0 0 0-65.32 55.71L2 88.39A6.8 6.8 0 0 0 11.61 98l20.06-20.06a43.06 43.06 0 0 0 55.71-65.32z"></path></symbol>
  <symbol id="icon-star" viewBox="0 0 100 95.52"><title>icon-star</title><g data-name="Layer 2"><path d="M64.19 28.77a5.17 5.17 0 0 0 3.9 2.83s29.27-3 31.74 4.61-23 22.39-23 22.39a5.17 5.17 0 0 0-1.49 4.58s11.91 26.9 5.42 31.61S52.4 79.87 52.4 79.87a5.21 5.21 0 0 0-2.41-.6 5.14 5.14 0 0 0-2.41.6S25.68 99.5 19.2 94.79s5.42-31.61 5.42-31.61a5.18 5.18 0 0 0-1.49-4.58S-2.31 43.83.17 36.21s31.74-4.61 31.74-4.61a5.19 5.19 0 0 0 3.9-2.83S42 0 50 0s14.19 28.77 14.19 28.77z" data-name="Layer 1"></path></g></symbol>
  <symbol id="logo-facebook" viewBox="0 0 16 16"><path d="M5.667 16h3.2V7.933h2.266L11.4 5.2H8.867V3.667C8.867 3 9 2.8 9.6 2.8h1.733V0h-2.2c-2.4 0-3.466 1.067-3.466 3.067V5.2H4v2.733h1.667V16z"></path></symbol>
  <symbol id="logo-instagram" viewBox="0 0 256 256"><path d="M128 23.06c34.18 0 38.23.13 51.72.75 12.48.57 19.26 2.65 23.77 4.41a39.66 39.66 0 0 1 14.72 9.57 39.66 39.66 0 0 1 9.57 14.72c1.76 4.51 3.84 11.29 4.41 23.77.62 13.49.75 17.54.75 51.72s-.13 38.23-.75 51.72c-.57 12.48-2.65 19.26-4.41 23.77a42.33 42.33 0 0 1-24.29 24.29c-4.51 1.76-11.29 3.84-23.77 4.41-13.49.62-17.54.75-51.72.75s-38.23-.13-51.72-.75c-12.48-.57-19.26-2.65-23.77-4.41a39.58 39.58 0 0 1-14.72-9.57 39.58 39.58 0 0 1-9.57-14.72c-1.76-4.51-3.84-11.29-4.41-23.77-.62-13.49-.75-17.54-.75-51.72s.13-38.23.75-51.72c.57-12.48 2.65-19.28 4.41-23.77a39.66 39.66 0 0 1 9.57-14.72 39.58 39.58 0 0 1 14.72-9.57c4.49-1.76 11.29-3.84 23.77-4.41 13.49-.62 17.54-.75 51.72-.75M128 0C93.24 0 88.88.15 75.23.77S52.3 3.56 44.15 6.72a62.88 62.88 0 0 0-22.67 14.76A62.83 62.83 0 0 0 6.72 44.16C3.56 52.3 1.39 61.6.77 75.23S0 93.24 0 128s.15 39.12.77 52.77 2.79 22.93 5.95 31.08a62.88 62.88 0 0 0 14.76 22.67 62.88 62.88 0 0 0 22.67 14.76c8.15 3.16 17.45 5.33 31.08 5.95s18 .77 52.77.77 39.12-.15 52.77-.77 22.93-2.79 31.07-5.95a65.4 65.4 0 0 0 37.44-37.43c3.16-8.15 5.33-17.45 5.95-31.08s.77-18 .77-52.77-.15-39.12-.77-52.77-2.79-22.93-5.95-31.07a62.83 62.83 0 0 0-14.76-22.68 62.83 62.83 0 0 0-22.68-14.76C203.7 3.56 194.4 1.39 180.77.77S162.76 0 128 0zm0 62.27A65.73 65.73 0 1 0 193.73 128 65.73 65.73 0 0 0 128 62.27zm0 108.4A42.67 42.67 0 1 1 170.67 128 42.68 42.68 0 0 1 128 170.67zm83.69-111a15.36 15.36 0 1 1-15.36-15.36 15.36 15.36 0 0 1 15.36 15.36z"></path></symbol>
  <symbol id="logo-twitter" viewBox="0 0 16 16"><path d="M0 12.867a9.332 9.332 0 0 0 5 1.466c6.067 0 9.533-5.133 9.333-9.733.667-.466 1.2-1.066 1.667-1.666-.6.266-1.2.466-1.867.533a3.55 3.55 0 0 0 1.467-1.8c-.667.4-1.333.666-2.067.8-.666-.734-1.533-1.134-2.466-1.134-2.134 0-3.667 2-3.2 4-2.734-.133-5.134-1.4-6.734-3.4a3.299 3.299 0 0 0 1 4.4c-.533-.066-1.066-.2-1.466-.4C.6 7.468 1.733 8.867 3.267 9.2c-.467.134-1 .134-1.467.067a3.16 3.16 0 0 0 3.067 2.267A6.726 6.726 0 0 1 0 12.867z"></path></symbol>
  <symbol id="logo-youtube" viewBox="0 0 16 16"><path d="M15.667 4.4c-.2-.667-.734-1.267-1.4-1.4C13 2.667 8 2.667 8 2.667s-5 0-6.267.333c-.666.2-1.2.733-1.4 1.4C0 5.666 0 8.333 0 8.333s0 2.6.333 3.867c.2.667.734 1.267 1.4 1.4C3 13.933 8 13.933 8 13.933s5 0 6.267-.333c.666-.2 1.2-.733 1.4-1.4C16 10.933 16 8.333 16 8.333s0-2.667-.333-3.933zm-9.334 6.266V5.933l4.2 2.4-4.2 2.333z"></path></symbol>
</svg>
